<?xml version="1.0" standalone="no"?>
<!DOCTYPE svg PUBLIC "-//W3C//DTD SVG 20010904//EN"
 "http://www.w3.org/TR/2001/REC-SVG-20010904/DTD/svg10.dtd">
<svg version="1.0" xmlns="http://www.w3.org/2000/svg"
 width="855.000000pt" height="855.000000pt" viewBox="0 0 855.000000 855.000000"
 preserveAspectRatio="xMidYMid meet">
<metadata>
Created by potrace 1.14, written by Peter Selinger 2001-2017
</metadata>
<g transform="translate(0.000000,855.000000) scale(0.100000,-0.100000)"
fill="#000000" stroke="none">
<path d="M1920 8440 c-332 -6 -386 -9 -472 -29 -277 -61 -559 -206 -773 -395
-254 -224 -451 -565 -527 -911 -19 -84 -21 -145 -28 -920 -9 -946 -9 -3879 0
-4330 6 -281 8 -308 34 -420 52 -224 145 -433 274 -615 86 -121 270 -306 392
-392 174 -124 409 -228 628 -280 82 -19 136 -21 882 -29 1113 -13 4559 -6
4665 10 263 39 528 146 745 299 121 85 306 270 393 392 37 52 96 154 132 225
117 236 161 414 176 700 9 194 9 3814 -1 4725 l-6 555 -36 135 c-88 326 -224
566 -448 790 -179 178 -345 287 -580 379 -143 56 -259 87 -375 100 -97 12
-4539 21 -5075 11z m1358 -1720 c111 -30 113 -31 107 -41 -3 -5 0 -6 8 -3 22
8 124 -57 200 -126 109 -100 186 -229 218 -365 20 -83 21 -1857 2 -1877 -7 -6
-13 -22 -13 -35 0 -28 -42 -121 -87 -193 -62 -97 -197 -216 -303 -267 -109
-52 -263 -75 -382 -57 -107 16 -182 37 -171 48 4 5 3 6 -3 3 -13 -8 -81 24
-140 64 -80 54 -189 176 -233 259 -84 159 -81 118 -81 1124 0 650 3 899 12
925 40 125 58 164 109 241 56 85 88 119 165 178 51 39 154 93 166 86 4 -3 8
-1 8 3 0 5 21 15 48 22 26 7 58 17 72 21 50 17 217 11 298 -10z m1741 -6 c17
-14 38 -41 47 -60 27 -57 7 -99 -90 -188 -45 -40 -97 -86 -116 -102 -19 -16
-42 -35 -50 -44 -56 -56 -112 -100 -122 -94 -7 4 -8 3 -4 -4 4 -6 -5 -19 -19
-28 -14 -9 -25 -23 -25 -30 0 -12 67 -14 408 -15 224 0 434 -2 467 -5 222 -18
426 -114 591 -278 69 -70 134 -147 134 -161 0 -4 9 -20 21 -36 11 -16 17 -34
13 -40 -4 -7 -3 -9 3 -6 10 7 46 -62 46 -88 0 -8 3 -15 6 -15 4 0 13 -21 20
-47 7 -27 18 -61 24 -78 9 -22 12 -375 14 -1310 2 -704 5 -1290 8 -1302 3 -14
13 -23 24 -23 29 0 107 -47 164 -100 51 -47 120 -148 120 -176 0 -8 4 -14 8
-14 9 0 19 -58 25 -155 7 -97 -11 -171 -60 -259 -39 -67 -119 -156 -142 -156
-7 0 -14 -4 -14 -9 0 -6 -9 -8 -21 -6 -16 3 -18 1 -10 -8 22 -27 -141 -77
-252 -77 -268 0 -495 229 -497 500 0 81 42 226 63 213 6 -4 7 -1 2 6 -12 21
60 113 142 182 19 15 110 61 146 73 17 5 17 66 15 1285 -2 1008 -6 1283 -15
1293 -7 6 -13 20 -13 30 0 26 -52 138 -88 190 -90 130 -188 197 -402 278 -44
17 -930 28 -930 12 0 -6 15 -22 33 -37 17 -15 66 -58 107 -95 41 -37 93 -82
114 -101 22 -19 51 -45 66 -59 15 -14 39 -35 55 -48 18 -15 26 -29 22 -42 -3
-11 0 -18 6 -17 19 3 19 -39 0 -79 -23 -48 -75 -84 -122 -84 -40 0 -85 25 -75
42 5 7 2 8 -6 3 -7 -4 -15 -4 -19 1 -3 5 -28 27 -54 48 -65 52 -88 77 -80 89
3 6 1 7 -6 3 -13 -8 -29 3 -142 105 -137 125 -282 252 -312 276 -17 13 -26 27
-21 34 4 8 3 9 -4 5 -13 -8 -62 32 -62 51 0 7 -4 13 -10 13 -14 0 -13 76 1
103 21 40 188 190 205 183 13 -5 38 17 28 26 -4 5 97 99 202 188 16 14 51 44
78 67 27 24 52 40 57 37 5 -3 6 3 2 13 -3 10 -3 15 1 12 4 -4 19 5 34 20 61
58 108 97 132 108 44 21 96 15 129 -13z m-639 -438 c0 -3 -4 -8 -10 -11 -5 -3
-10 -1 -10 4 0 6 5 11 10 11 6 0 10 -2 10 -4z m-2360 -1705 c56 -29 80 -73 80
-147 0 -34 5 -86 11 -116 6 -29 15 -78 21 -108 6 -30 15 -59 20 -64 4 -6 8
-17 8 -26 0 -39 140 -289 174 -312 6 -4 5 -13 -5 -25 -12 -16 -12 -17 1 -7 12
10 28 0 83 -52 38 -34 69 -72 70 -83 0 -11 5 -17 9 -15 5 3 6 10 3 15 -13 19
11 8 42 -21 18 -17 37 -30 42 -30 17 0 73 -37 64 -42 -4 -3 -3 -3 4 -2 7 2 38
-9 69 -23 31 -14 71 -29 88 -34 17 -4 60 -15 96 -24 81 -21 318 -24 405 -5
196 41 361 128 503 264 29 28 58 53 63 54 5 2 9 10 9 18 0 7 9 19 20 26 11 7
20 18 20 24 0 6 7 17 15 24 31 26 103 167 141 280 23 66 44 196 44 272 0 46 5
71 15 82 9 8 16 18 16 21 -1 52 109 90 174 59 61 -28 75 -65 75 -192 0 -63 -4
-113 -10 -117 -5 -3 -10 -24 -10 -46 0 -50 -33 -172 -65 -243 -14 -31 -25 -58
-25 -61 2 -12 -57 -115 -114 -198 -72 -107 -144 -189 -158 -180 -6 3 -8 1 -5
-4 13 -21 -194 -182 -304 -237 -40 -20 -74 -34 -77 -31 -3 2 -10 -1 -16 -9
-19 -22 -263 -91 -351 -99 -21 -1 -30 -7 -29 -19 0 -10 1 -94 2 -187 l2 -169
66 -32 c79 -38 104 -58 97 -79 -4 -14 -3 -14 6 -1 10 13 19 7 56 -35 106 -119
154 -284 125 -429 -18 -87 -67 -184 -104 -208 -17 -11 -22 -17 -12 -14 16 5
17 4 6 -9 -7 -8 -17 -12 -23 -8 -5 3 -7 2 -4 -4 10 -17 -47 -65 -69 -57 -14 4
-15 3 -6 -4 17 -12 -53 -54 -135 -83 -64 -22 -214 -26 -260 -7 -15 6 -32 12
-38 13 -32 4 -65 19 -65 28 0 6 -3 8 -6 4 -8 -8 -77 39 -126 86 -35 35 -96
122 -112 162 -36 89 -45 224 -22 312 38 141 148 276 269 328 l67 29 2 178 c0
98 1 184 2 191 1 6 -10 13 -24 15 -14 2 -34 7 -45 12 -11 5 -37 11 -57 14 -84
13 -108 19 -114 27 -3 5 -12 9 -20 9 -13 0 -48 14 -134 53 -41 19 -138 76
-152 90 -7 7 -21 16 -31 20 -10 4 -15 11 -12 17 3 5 0 7 -8 4 -13 -4 -57 31
-156 126 -48 46 -165 193 -186 234 -6 11 -19 33 -29 49 -10 15 -14 27 -10 27
5 0 4 4 -2 8 -30 21 -96 189 -123 317 -57 269 -39 383 64 417 37 11 70 8 105
-11z"/>
<path d="M3006 6448 c-22 -6 -64 -24 -94 -39 -29 -16 -59 -26 -65 -22 -5 3 -7
1 -3 -5 3 -6 -4 -19 -17 -29 -44 -35 -105 -128 -126 -192 -21 -63 -21 -79 -21
-902 0 -575 3 -855 11 -891 26 -122 139 -261 245 -302 51 -19 175 -46 185 -40
3 1 34 8 69 13 127 21 254 116 307 231 13 30 29 63 34 72 14 27 12 1770 -2
1805 -39 96 -64 136 -114 189 -23 24 -97 74 -135 91 -75 33 -193 42 -274 21z"/>
<path d="M6188 2554 c-4 -3 -12 -7 -20 -8 -37 -6 -103 -52 -130 -91 -61 -86
-74 -177 -38 -253 12 -24 18 -48 14 -54 -4 -6 -3 -8 3 -5 6 4 20 -8 32 -26 11
-17 21 -28 21 -24 0 5 12 0 28 -11 15 -10 36 -23 47 -27 26 -11 185 -22 179
-13 -3 4 11 14 31 22 125 52 181 212 120 341 -32 66 -77 107 -150 134 -53 20
-125 28 -137 15z"/>
<path d="M3025 2547 c-83 -34 -148 -91 -161 -142 -3 -14 -10 -25 -14 -25 -4 0
-8 -31 -9 -68 -2 -87 23 -148 84 -209 25 -24 45 -42 45 -39 0 3 19 -1 41 -9
163 -58 325 47 346 225 8 66 -24 154 -74 204 -57 56 -192 89 -258 63z"/>
</g>
</svg>
